<mxfile host="app.diagrams.net" modified="2024-07-02T14:01:52.872Z" agent="Mozilla/5.0 (Windows NT 10.0; Win64; x64) AppleWebKit/537.36 (KHTML, like Gecko) Chrome/126.0.0.0 Safari/537.36" etag="lEftYIEyXoOdKJr2dw0G" version="24.6.4" type="github">
  <diagram name="第 1 页" id="lCkcz3Zl63JNi4f7n_hy">
    <mxGraphModel dx="794" dy="420" grid="1" gridSize="6" guides="1" tooltips="1" connect="1" arrows="1" fold="1" page="1" pageScale="1" pageWidth="827" pageHeight="1169" math="0" shadow="0">
      <root>
        <mxCell id="0" />
        <mxCell id="1" parent="0" />
        <mxCell id="og30UrdUeXJwtOHALcXS-37" value="PCle总线" style="rounded=0;whiteSpace=wrap;html=1;fillColor=#fff2cc;strokeColor=#d6b656;" vertex="1" parent="1">
          <mxGeometry x="49.9" y="1525" width="565" height="17" as="geometry" />
        </mxCell>
        <mxCell id="og30UrdUeXJwtOHALcXS-1" value="" style="rounded=0;whiteSpace=wrap;html=1;fillColor=#f8cecc;strokeColor=#b85450;" vertex="1" parent="1">
          <mxGeometry x="49.9" y="1344" width="376.1" height="168" as="geometry" />
        </mxCell>
        <mxCell id="bQfD7yy9uqaKVajtqMiU-53" value="" style="rounded=0;whiteSpace=wrap;html=1;fillColor=#f0a30a;strokeColor=#BD7000;fontColor=#000000;" parent="1" vertex="1">
          <mxGeometry x="351" y="910" width="14.6" height="90" as="geometry" />
        </mxCell>
        <mxCell id="bQfD7yy9uqaKVajtqMiU-43" value="" style="rounded=0;whiteSpace=wrap;html=1;fillColor=#f0a30a;strokeColor=#BD7000;fontColor=#000000;" parent="1" vertex="1">
          <mxGeometry x="155.4" y="790" width="14.6" height="110" as="geometry" />
        </mxCell>
        <mxCell id="bQfD7yy9uqaKVajtqMiU-1" value="TCP/IP 网络分层" style="shape=note;whiteSpace=wrap;html=1;backgroundOutline=1;darkOpacity=0.05;fillColor=#ffff88;strokeColor=none;horizontal=1;align=left;verticalAlign=top;size=18;fontSize=16;fontStyle=1" parent="1" vertex="1">
          <mxGeometry x="30" y="30" width="130" height="30" as="geometry" />
        </mxCell>
        <mxCell id="bQfD7yy9uqaKVajtqMiU-6" style="edgeStyle=orthogonalEdgeStyle;rounded=0;orthogonalLoop=1;jettySize=auto;html=1;" parent="1" source="bQfD7yy9uqaKVajtqMiU-3" edge="1">
          <mxGeometry relative="1" as="geometry">
            <mxPoint x="281" y="150" as="targetPoint" />
          </mxGeometry>
        </mxCell>
        <mxCell id="bQfD7yy9uqaKVajtqMiU-3" value="应用层&lt;div&gt;客户端&lt;/div&gt;" style="rounded=0;whiteSpace=wrap;html=1;align=center;verticalAlign=middle;fillColor=#dae8fc;strokeColor=#6c8ebf;" parent="1" vertex="1">
          <mxGeometry x="161" y="130" width="75" height="40" as="geometry" />
        </mxCell>
        <mxCell id="bQfD7yy9uqaKVajtqMiU-4" value="" style="endArrow=none;html=1;rounded=0;" parent="1" edge="1">
          <mxGeometry width="50" height="50" relative="1" as="geometry">
            <mxPoint x="80" y="340" as="sourcePoint" />
            <mxPoint x="290" y="340" as="targetPoint" />
          </mxGeometry>
        </mxCell>
        <mxCell id="bQfD7yy9uqaKVajtqMiU-7" value="HTTP、FTP" style="text;html=1;align=center;verticalAlign=middle;resizable=0;points=[];autosize=1;strokeColor=none;fillColor=none;" parent="1" vertex="1">
          <mxGeometry x="281" y="135" width="90" height="30" as="geometry" />
        </mxCell>
        <mxCell id="bQfD7yy9uqaKVajtqMiU-8" value="用户进程" style="text;html=1;align=center;verticalAlign=middle;resizable=0;points=[];autosize=1;strokeColor=none;fillColor=none;" parent="1" vertex="1">
          <mxGeometry x="20" y="170" width="70" height="30" as="geometry" />
        </mxCell>
        <mxCell id="bQfD7yy9uqaKVajtqMiU-9" value="Linux内核" style="text;html=1;align=center;verticalAlign=middle;resizable=0;points=[];autosize=1;strokeColor=none;fillColor=none;" parent="1" vertex="1">
          <mxGeometry x="10" y="293" width="80" height="30" as="geometry" />
        </mxCell>
        <mxCell id="bQfD7yy9uqaKVajtqMiU-18" style="edgeStyle=orthogonalEdgeStyle;rounded=0;orthogonalLoop=1;jettySize=auto;html=1;" parent="1" source="bQfD7yy9uqaKVajtqMiU-11" edge="1">
          <mxGeometry relative="1" as="geometry">
            <mxPoint x="281" y="250" as="targetPoint" />
          </mxGeometry>
        </mxCell>
        <mxCell id="bQfD7yy9uqaKVajtqMiU-11" value="传输层" style="rounded=0;whiteSpace=wrap;html=1;align=center;verticalAlign=middle;fillColor=#dae8fc;strokeColor=#6c8ebf;" parent="1" vertex="1">
          <mxGeometry x="161" y="230" width="75" height="40" as="geometry" />
        </mxCell>
        <mxCell id="bQfD7yy9uqaKVajtqMiU-20" value="" style="edgeStyle=orthogonalEdgeStyle;rounded=0;orthogonalLoop=1;jettySize=auto;html=1;" parent="1" source="bQfD7yy9uqaKVajtqMiU-12" edge="1">
          <mxGeometry relative="1" as="geometry">
            <mxPoint x="281" y="303" as="targetPoint" />
          </mxGeometry>
        </mxCell>
        <mxCell id="bQfD7yy9uqaKVajtqMiU-12" value="网络层" style="rounded=0;whiteSpace=wrap;html=1;align=center;verticalAlign=middle;fillColor=#dae8fc;strokeColor=#6c8ebf;" parent="1" vertex="1">
          <mxGeometry x="161" y="283" width="75" height="40" as="geometry" />
        </mxCell>
        <mxCell id="bQfD7yy9uqaKVajtqMiU-28" style="edgeStyle=orthogonalEdgeStyle;rounded=0;orthogonalLoop=1;jettySize=auto;html=1;" parent="1" source="bQfD7yy9uqaKVajtqMiU-13" edge="1">
          <mxGeometry relative="1" as="geometry">
            <mxPoint x="280" y="370" as="targetPoint" />
          </mxGeometry>
        </mxCell>
        <mxCell id="bQfD7yy9uqaKVajtqMiU-13" value="链路层" style="rounded=0;whiteSpace=wrap;html=1;align=center;verticalAlign=middle;fillColor=#dae8fc;strokeColor=#6c8ebf;" parent="1" vertex="1">
          <mxGeometry x="161" y="350" width="75" height="40" as="geometry" />
        </mxCell>
        <mxCell id="bQfD7yy9uqaKVajtqMiU-30" style="edgeStyle=orthogonalEdgeStyle;rounded=0;orthogonalLoop=1;jettySize=auto;html=1;" parent="1" source="bQfD7yy9uqaKVajtqMiU-14" edge="1">
          <mxGeometry relative="1" as="geometry">
            <mxPoint x="280" y="440" as="targetPoint" />
          </mxGeometry>
        </mxCell>
        <mxCell id="bQfD7yy9uqaKVajtqMiU-14" value="物理层" style="rounded=0;whiteSpace=wrap;html=1;align=center;verticalAlign=middle;fillColor=#dae8fc;strokeColor=#6c8ebf;" parent="1" vertex="1">
          <mxGeometry x="161" y="420" width="75" height="40" as="geometry" />
        </mxCell>
        <mxCell id="bQfD7yy9uqaKVajtqMiU-15" value="" style="endArrow=none;html=1;rounded=0;" parent="1" edge="1">
          <mxGeometry width="50" height="50" relative="1" as="geometry">
            <mxPoint x="35" y="210" as="sourcePoint" />
            <mxPoint x="295" y="210" as="targetPoint" />
          </mxGeometry>
        </mxCell>
        <mxCell id="bQfD7yy9uqaKVajtqMiU-16" value="socket" style="edgeLabel;html=1;align=center;verticalAlign=middle;resizable=0;points=[];" parent="bQfD7yy9uqaKVajtqMiU-15" vertex="1" connectable="0">
          <mxGeometry x="-0.2231" y="-3" relative="1" as="geometry">
            <mxPoint x="73" y="-3" as="offset" />
          </mxGeometry>
        </mxCell>
        <mxCell id="bQfD7yy9uqaKVajtqMiU-19" value="TCP、UDP" style="text;html=1;align=center;verticalAlign=middle;resizable=0;points=[];autosize=1;strokeColor=none;fillColor=none;" parent="1" vertex="1">
          <mxGeometry x="277" y="238" width="80" height="30" as="geometry" />
        </mxCell>
        <mxCell id="bQfD7yy9uqaKVajtqMiU-21" value="IP、ICMP" style="text;html=1;align=center;verticalAlign=middle;resizable=0;points=[];autosize=1;strokeColor=none;fillColor=none;" parent="1" vertex="1">
          <mxGeometry x="271" y="288" width="80" height="30" as="geometry" />
        </mxCell>
        <mxCell id="bQfD7yy9uqaKVajtqMiU-22" value="" style="endArrow=none;html=1;rounded=0;" parent="1" edge="1">
          <mxGeometry width="50" height="50" relative="1" as="geometry">
            <mxPoint x="40" y="410" as="sourcePoint" />
            <mxPoint x="300" y="410" as="targetPoint" />
          </mxGeometry>
        </mxCell>
        <mxCell id="bQfD7yy9uqaKVajtqMiU-24" value="协议栈" style="text;html=1;align=center;verticalAlign=middle;resizable=0;points=[];autosize=1;strokeColor=none;fillColor=none;" parent="1" vertex="1">
          <mxGeometry x="90" y="258" width="60" height="30" as="geometry" />
        </mxCell>
        <mxCell id="bQfD7yy9uqaKVajtqMiU-25" value="驱动" style="text;html=1;align=center;verticalAlign=middle;resizable=0;points=[];autosize=1;strokeColor=none;fillColor=none;" parent="1" vertex="1">
          <mxGeometry x="95" y="360" width="50" height="30" as="geometry" />
        </mxCell>
        <mxCell id="bQfD7yy9uqaKVajtqMiU-29" value="网络驱动" style="text;html=1;align=center;verticalAlign=middle;resizable=0;points=[];autosize=1;strokeColor=none;fillColor=none;" parent="1" vertex="1">
          <mxGeometry x="275" y="358" width="70" height="30" as="geometry" />
        </mxCell>
        <mxCell id="bQfD7yy9uqaKVajtqMiU-31" value="网卡网线" style="text;html=1;align=center;verticalAlign=middle;resizable=0;points=[];autosize=1;strokeColor=none;fillColor=none;" parent="1" vertex="1">
          <mxGeometry x="275" y="428" width="70" height="30" as="geometry" />
        </mxCell>
        <mxCell id="bQfD7yy9uqaKVajtqMiU-33" value="内核和网络设备驱动是通过中断的方式来处理的。当驱动上有数据到达的时候，会给CPU的相关引脚上触发一个电压变化，处理CPU来处理数据。对于网络模块来说，由于处理过程比较复杂和耗时，将会导致中断处理函数过度占用CPU，导致CPU无法响应其他设备。因此在linux中断处理函数中是分上部分和下部分的。上部分响应硬中断，简单处理后发出软中断，下半部分是处理软中断，由ksoftirqd内核线程全权处理。" style="text;html=1;align=left;verticalAlign=top;whiteSpace=wrap;rounded=0;fontSize=14;" parent="1" vertex="1">
          <mxGeometry x="40" y="480" width="380" height="150" as="geometry" />
        </mxCell>
        <mxCell id="bQfD7yy9uqaKVajtqMiU-35" value="内核收包示意图" style="shape=note;whiteSpace=wrap;html=1;backgroundOutline=1;darkOpacity=0.05;fillColor=#ffff88;strokeColor=none;horizontal=1;align=left;verticalAlign=top;size=18;" parent="1" vertex="1">
          <mxGeometry x="40" y="640" width="110" height="30" as="geometry" />
        </mxCell>
        <mxCell id="bQfD7yy9uqaKVajtqMiU-36" value="CPU" style="pointerEvents=1;shadow=0;dashed=0;html=1;strokeColor=none;fillColor=#4495D1;labelPosition=center;verticalLabelPosition=bottom;verticalAlign=top;align=center;outlineConnect=0;shape=mxgraph.veeam.cpu;" parent="1" vertex="1">
          <mxGeometry x="140.3" y="720" width="44.8" height="44.8" as="geometry" />
        </mxCell>
        <mxCell id="bQfD7yy9uqaKVajtqMiU-37" value="PCle总线" style="shape=doubleArrow;whiteSpace=wrap;html=1;arrowWidth=0.5555562337239583;arrowSize=0.10917862601902174;fillColor=#1ba1e2;strokeColor=#006EAF;fontColor=#ffffff;" parent="1" vertex="1">
          <mxGeometry x="80" y="895" width="385" height="30" as="geometry" />
        </mxCell>
        <mxCell id="bQfD7yy9uqaKVajtqMiU-38" value="Bridge" style="rounded=0;whiteSpace=wrap;html=1;align=center;verticalAlign=middle;fillColor=#dae8fc;strokeColor=#6c8ebf;" parent="1" vertex="1">
          <mxGeometry x="125" y="814" width="75" height="40" as="geometry" />
        </mxCell>
        <mxCell id="bQfD7yy9uqaKVajtqMiU-44" value="用户态" style="rounded=0;whiteSpace=wrap;html=1;align=center;verticalAlign=top;" parent="1" vertex="1">
          <mxGeometry x="281" y="710" width="179" height="180" as="geometry" />
        </mxCell>
        <mxCell id="bQfD7yy9uqaKVajtqMiU-46" value="" style="endArrow=none;html=1;rounded=0;entryX=1;entryY=0.5;entryDx=0;entryDy=0;exitX=0;exitY=0.5;exitDx=0;exitDy=0;" parent="1" source="bQfD7yy9uqaKVajtqMiU-44" target="bQfD7yy9uqaKVajtqMiU-44" edge="1">
          <mxGeometry width="50" height="50" relative="1" as="geometry">
            <mxPoint x="131" y="826" as="sourcePoint" />
            <mxPoint x="181" y="776" as="targetPoint" />
          </mxGeometry>
        </mxCell>
        <mxCell id="bQfD7yy9uqaKVajtqMiU-47" value="内核态" style="text;html=1;align=center;verticalAlign=middle;resizable=0;points=[];autosize=1;strokeColor=none;fillColor=none;" parent="1" vertex="1">
          <mxGeometry x="340.5" y="800" width="60" height="30" as="geometry" />
        </mxCell>
        <mxCell id="bQfD7yy9uqaKVajtqMiU-55" value="" style="edgeStyle=orthogonalEdgeStyle;rounded=0;orthogonalLoop=1;jettySize=auto;html=1;strokeWidth=3;fillColor=#f8cecc;strokeColor=#b85450;dashed=1;" parent="1" source="bQfD7yy9uqaKVajtqMiU-49" target="bQfD7yy9uqaKVajtqMiU-50" edge="1">
          <mxGeometry relative="1" as="geometry" />
        </mxCell>
        <mxCell id="bQfD7yy9uqaKVajtqMiU-49" value="" style="ellipse;shape=doubleEllipse;whiteSpace=wrap;html=1;aspect=fixed;" parent="1" vertex="1">
          <mxGeometry x="295" y="830" width="50" height="50" as="geometry" />
        </mxCell>
        <mxCell id="bQfD7yy9uqaKVajtqMiU-56" value="" style="edgeStyle=orthogonalEdgeStyle;rounded=0;orthogonalLoop=1;jettySize=auto;html=1;" parent="1" source="bQfD7yy9uqaKVajtqMiU-50" target="bQfD7yy9uqaKVajtqMiU-51" edge="1">
          <mxGeometry relative="1" as="geometry" />
        </mxCell>
        <mxCell id="bQfD7yy9uqaKVajtqMiU-57" value="" style="edgeStyle=orthogonalEdgeStyle;rounded=0;orthogonalLoop=1;jettySize=auto;html=1;strokeWidth=3;dashed=1;" parent="1" source="bQfD7yy9uqaKVajtqMiU-50" target="bQfD7yy9uqaKVajtqMiU-51" edge="1">
          <mxGeometry relative="1" as="geometry" />
        </mxCell>
        <mxCell id="bQfD7yy9uqaKVajtqMiU-50" value="" style="rounded=0;whiteSpace=wrap;html=1;align=center;verticalAlign=middle;" parent="1" vertex="1">
          <mxGeometry x="394" y="842.5" width="46" height="25" as="geometry" />
        </mxCell>
        <mxCell id="bQfD7yy9uqaKVajtqMiU-51" value="" style="rounded=0;whiteSpace=wrap;html=1;align=center;verticalAlign=middle;" parent="1" vertex="1">
          <mxGeometry x="394" y="750" width="46" height="25" as="geometry" />
        </mxCell>
        <mxCell id="bQfD7yy9uqaKVajtqMiU-54" style="edgeStyle=orthogonalEdgeStyle;rounded=0;orthogonalLoop=1;jettySize=auto;html=1;entryX=0.5;entryY=1;entryDx=0;entryDy=0;strokeWidth=6;fillColor=#fad7ac;strokeColor=#b46504;" parent="1" source="bQfD7yy9uqaKVajtqMiU-52" target="bQfD7yy9uqaKVajtqMiU-49" edge="1">
          <mxGeometry relative="1" as="geometry">
            <Array as="points">
              <mxPoint x="320" y="940" />
              <mxPoint x="320" y="940" />
            </Array>
          </mxGeometry>
        </mxCell>
        <mxCell id="bQfD7yy9uqaKVajtqMiU-52" value="网卡" style="rounded=0;whiteSpace=wrap;html=1;align=center;verticalAlign=middle;fillColor=#dae8fc;strokeColor=#6c8ebf;" parent="1" vertex="1">
          <mxGeometry x="282.5" y="960" width="167.5" height="60" as="geometry" />
        </mxCell>
        <mxCell id="bQfD7yy9uqaKVajtqMiU-59" value="" style="shape=flexArrow;endArrow=classic;html=1;rounded=0;entryX=1;entryY=0.75;entryDx=0;entryDy=0;" parent="1" target="bQfD7yy9uqaKVajtqMiU-52" edge="1">
          <mxGeometry width="50" height="50" relative="1" as="geometry">
            <mxPoint x="540" y="1005" as="sourcePoint" />
            <mxPoint x="474" y="972" as="targetPoint" />
          </mxGeometry>
        </mxCell>
        <mxCell id="bQfD7yy9uqaKVajtqMiU-60" value="1. 数据帧从外部&lt;div&gt;网络到达网卡&lt;/div&gt;" style="text;html=1;align=center;verticalAlign=middle;resizable=0;points=[];autosize=1;strokeColor=none;fillColor=none;" parent="1" vertex="1">
          <mxGeometry x="468" y="948" width="108" height="48" as="geometry" />
        </mxCell>
        <mxCell id="bQfD7yy9uqaKVajtqMiU-62" value="2. 网卡把帧DMA到内存" style="text;html=1;align=center;verticalAlign=middle;resizable=0;points=[];autosize=1;strokeColor=none;fillColor=none;" parent="1" vertex="1">
          <mxGeometry x="180" y="930" width="150" height="30" as="geometry" />
        </mxCell>
        <mxCell id="bQfD7yy9uqaKVajtqMiU-63" style="edgeStyle=orthogonalEdgeStyle;rounded=0;orthogonalLoop=1;jettySize=auto;html=1;entryX=0.491;entryY=0.536;entryDx=0;entryDy=0;entryPerimeter=0;strokeWidth=3;fillColor=#f0a30a;strokeColor=#BD7000;" parent="1" source="bQfD7yy9uqaKVajtqMiU-52" target="bQfD7yy9uqaKVajtqMiU-36" edge="1">
          <mxGeometry relative="1" as="geometry">
            <Array as="points">
              <mxPoint x="36" y="990" />
              <mxPoint x="36" y="744" />
            </Array>
          </mxGeometry>
        </mxCell>
        <mxCell id="bQfD7yy9uqaKVajtqMiU-64" value="3. 硬中断&lt;div&gt;通知CPU&lt;/div&gt;" style="text;html=1;align=center;verticalAlign=middle;resizable=0;points=[];autosize=1;strokeColor=none;fillColor=none;fontColor=#393C56;" parent="1" vertex="1">
          <mxGeometry x="30" y="810" width="72" height="48" as="geometry" />
        </mxCell>
        <mxCell id="bQfD7yy9uqaKVajtqMiU-66" style="edgeStyle=orthogonalEdgeStyle;rounded=0;orthogonalLoop=1;jettySize=auto;html=1;entryX=0;entryY=0.5;entryDx=0;entryDy=0;strokeColor=#E07A5F;fontColor=#393C56;fillColor=#F2CC8F;strokeWidth=3;" parent="1" source="bQfD7yy9uqaKVajtqMiU-36" target="bQfD7yy9uqaKVajtqMiU-49" edge="1">
          <mxGeometry relative="1" as="geometry" />
        </mxCell>
        <mxCell id="bQfD7yy9uqaKVajtqMiU-67" value="4. CPU发起软中断&lt;div&gt;&lt;br&gt;&lt;/div&gt;&lt;div&gt;5. ksoftirqd进程处理软中断，&lt;/div&gt;&lt;div&gt;调用网卡驱动注册的poll函数开始收包&lt;/div&gt;" style="text;html=1;align=left;verticalAlign=middle;resizable=0;points=[];autosize=1;strokeColor=none;fillColor=none;fontColor=#393C56;" parent="1" vertex="1">
          <mxGeometry x="185.1" y="640" width="222" height="78" as="geometry" />
        </mxCell>
        <mxCell id="bQfD7yy9uqaKVajtqMiU-68" value="6. 帧被从ring buffer上&lt;div&gt;摘下来保存为一个skb&lt;/div&gt;" style="text;html=1;align=center;verticalAlign=middle;resizable=0;points=[];autosize=1;strokeColor=none;fillColor=none;fontColor=#393C56;" parent="1" vertex="1">
          <mxGeometry x="465" y="842" width="138" height="48" as="geometry" />
        </mxCell>
        <mxCell id="bQfD7yy9uqaKVajtqMiU-69" value="7. 协议栈开始处理网络帧，&lt;div&gt;处理完后放到socket的接收队列中&lt;/div&gt;" style="text;html=1;align=center;verticalAlign=middle;resizable=0;points=[];autosize=1;strokeColor=none;fillColor=none;fontColor=#393C56;" parent="1" vertex="1">
          <mxGeometry x="460" y="756" width="204" height="48" as="geometry" />
        </mxCell>
        <mxCell id="bQfD7yy9uqaKVajtqMiU-70" value="ring buffer是一种结构，环形缓冲区&lt;div&gt;至于内存区域，又分为RX 和 TX，&lt;/div&gt;&lt;div&gt;RX指的是接受队列，TX指的是发送队列&lt;/div&gt;&lt;div&gt;&lt;br&gt;&lt;/div&gt;" style="text;html=1;align=center;verticalAlign=middle;resizable=0;points=[];autosize=1;strokeColor=none;fillColor=none;fontColor=#393C56;" parent="1" vertex="1">
          <mxGeometry x="30" y="1026" width="234" height="78" as="geometry" />
        </mxCell>
        <mxCell id="bQfD7yy9uqaKVajtqMiU-74" value="同步阻塞IO流程图" style="shape=note;whiteSpace=wrap;html=1;backgroundOutline=1;darkOpacity=0.05;fillColor=#ffff88;strokeColor=none;horizontal=1;align=center;verticalAlign=top;size=18;fontSize=14;fontStyle=1" parent="1" vertex="1">
          <mxGeometry x="28" y="1146" width="122" height="36" as="geometry" />
        </mxCell>
        <mxCell id="og30UrdUeXJwtOHALcXS-11" style="edgeStyle=orthogonalEdgeStyle;rounded=0;orthogonalLoop=1;jettySize=auto;html=1;entryX=0.5;entryY=0;entryDx=0;entryDy=0;strokeWidth=2;fillColor=#f0a30a;strokeColor=#BD7000;fontSize=14;" edge="1" parent="1" source="bQfD7yy9uqaKVajtqMiU-75" target="og30UrdUeXJwtOHALcXS-2">
          <mxGeometry relative="1" as="geometry" />
        </mxCell>
        <mxCell id="og30UrdUeXJwtOHALcXS-12" value="1. 创建socket" style="edgeLabel;html=1;align=center;verticalAlign=middle;resizable=0;points=[];" vertex="1" connectable="0" parent="og30UrdUeXJwtOHALcXS-11">
          <mxGeometry x="-0.2457" y="-1" relative="1" as="geometry">
            <mxPoint as="offset" />
          </mxGeometry>
        </mxCell>
        <mxCell id="og30UrdUeXJwtOHALcXS-13" style="rounded=0;orthogonalLoop=1;jettySize=auto;html=1;exitX=1;exitY=1;exitDx=0;exitDy=0;strokeWidth=2;fillColor=#f0a30a;strokeColor=#BD7000;" edge="1" parent="1" source="bQfD7yy9uqaKVajtqMiU-75" target="og30UrdUeXJwtOHALcXS-3">
          <mxGeometry relative="1" as="geometry" />
        </mxCell>
        <mxCell id="og30UrdUeXJwtOHALcXS-14" value="2. 等待接收" style="edgeLabel;html=1;align=center;verticalAlign=middle;resizable=0;points=[];" vertex="1" connectable="0" parent="og30UrdUeXJwtOHALcXS-13">
          <mxGeometry x="-0.2247" y="-1" relative="1" as="geometry">
            <mxPoint x="34" as="offset" />
          </mxGeometry>
        </mxCell>
        <mxCell id="bQfD7yy9uqaKVajtqMiU-75" value="用户进程" style="rounded=0;whiteSpace=wrap;html=1;align=center;verticalAlign=middle;fillColor=#dae8fc;strokeColor=#6c8ebf;fontStyle=1" parent="1" vertex="1">
          <mxGeometry x="60" y="1242" width="75" height="40" as="geometry" />
        </mxCell>
        <mxCell id="og30UrdUeXJwtOHALcXS-10" style="edgeStyle=orthogonalEdgeStyle;rounded=0;orthogonalLoop=1;jettySize=auto;html=1;entryX=0;entryY=0.5;entryDx=0;entryDy=0;" edge="1" parent="1" source="og30UrdUeXJwtOHALcXS-2" target="og30UrdUeXJwtOHALcXS-3">
          <mxGeometry relative="1" as="geometry" />
        </mxCell>
        <mxCell id="og30UrdUeXJwtOHALcXS-20" style="edgeStyle=orthogonalEdgeStyle;rounded=0;orthogonalLoop=1;jettySize=auto;html=1;entryX=0.25;entryY=0;entryDx=0;entryDy=0;fillColor=#f0a30a;strokeColor=#BD7000;strokeWidth=2;" edge="1" parent="1" source="og30UrdUeXJwtOHALcXS-2" target="og30UrdUeXJwtOHALcXS-18">
          <mxGeometry relative="1" as="geometry" />
        </mxCell>
        <mxCell id="og30UrdUeXJwtOHALcXS-2" value="socket内核对象" style="rounded=0;whiteSpace=wrap;html=1;fillColor=#dae8fc;strokeColor=#6c8ebf;" vertex="1" parent="1">
          <mxGeometry x="71" y="1369" width="54" height="29" as="geometry" />
        </mxCell>
        <mxCell id="og30UrdUeXJwtOHALcXS-3" value="" style="rounded=0;whiteSpace=wrap;html=1;fillColor=#d5e8d4;strokeColor=#82b366;" vertex="1" parent="1">
          <mxGeometry x="155.4" y="1369" width="23" height="30" as="geometry" />
        </mxCell>
        <mxCell id="og30UrdUeXJwtOHALcXS-4" value="" style="rounded=0;whiteSpace=wrap;html=1;" vertex="1" parent="1">
          <mxGeometry x="178.4" y="1369" width="23" height="30" as="geometry" />
        </mxCell>
        <mxCell id="og30UrdUeXJwtOHALcXS-5" value="" style="rounded=0;whiteSpace=wrap;html=1;" vertex="1" parent="1">
          <mxGeometry x="201.4" y="1369" width="23" height="30" as="geometry" />
        </mxCell>
        <mxCell id="og30UrdUeXJwtOHALcXS-6" value="等待队列" style="text;html=1;align=center;verticalAlign=middle;whiteSpace=wrap;rounded=0;" vertex="1" parent="1">
          <mxGeometry x="160" y="1342" width="60" height="30" as="geometry" />
        </mxCell>
        <mxCell id="og30UrdUeXJwtOHALcXS-15" value="" style="rounded=0;whiteSpace=wrap;html=1;fillColor=#dae8fc;strokeColor=#6c8ebf;" vertex="1" parent="1">
          <mxGeometry x="71" y="1446" width="39" height="24" as="geometry" />
        </mxCell>
        <mxCell id="og30UrdUeXJwtOHALcXS-16" value="" style="rounded=0;whiteSpace=wrap;html=1;fillColor=#dae8fc;strokeColor=#6c8ebf;" vertex="1" parent="1">
          <mxGeometry x="110" y="1446" width="39" height="24" as="geometry" />
        </mxCell>
        <mxCell id="og30UrdUeXJwtOHALcXS-17" value="" style="rounded=0;whiteSpace=wrap;html=1;fillColor=#dae8fc;strokeColor=#6c8ebf;" vertex="1" parent="1">
          <mxGeometry x="149" y="1446" width="39" height="24" as="geometry" />
        </mxCell>
        <mxCell id="og30UrdUeXJwtOHALcXS-18" value="socket接收队列" style="text;html=1;align=center;verticalAlign=middle;whiteSpace=wrap;rounded=0;" vertex="1" parent="1">
          <mxGeometry x="69" y="1422" width="117" height="30" as="geometry" />
        </mxCell>
        <mxCell id="og30UrdUeXJwtOHALcXS-24" style="edgeStyle=orthogonalEdgeStyle;rounded=0;orthogonalLoop=1;jettySize=auto;html=1;entryX=1;entryY=0.5;entryDx=0;entryDy=0;fillColor=#fa6800;strokeColor=#C73500;strokeWidth=2;" edge="1" parent="1" source="og30UrdUeXJwtOHALcXS-21" target="og30UrdUeXJwtOHALcXS-17">
          <mxGeometry relative="1" as="geometry" />
        </mxCell>
        <mxCell id="og30UrdUeXJwtOHALcXS-21" value="skb" style="rounded=0;whiteSpace=wrap;html=1;fillColor=#dae8fc;strokeColor=#6c8ebf;" vertex="1" parent="1">
          <mxGeometry x="243.5" y="1446" width="39" height="24" as="geometry" />
        </mxCell>
        <mxCell id="og30UrdUeXJwtOHALcXS-26" style="rounded=0;orthogonalLoop=1;jettySize=auto;html=1;entryX=1;entryY=0.25;entryDx=0;entryDy=0;fillColor=#fa6800;strokeColor=#C73500;strokeWidth=2;" edge="1" parent="1" source="og30UrdUeXJwtOHALcXS-25" target="og30UrdUeXJwtOHALcXS-21">
          <mxGeometry relative="1" as="geometry" />
        </mxCell>
        <mxCell id="og30UrdUeXJwtOHALcXS-25" value="" style="ellipse;shape=doubleEllipse;whiteSpace=wrap;html=1;aspect=fixed;" vertex="1" parent="1">
          <mxGeometry x="334" y="1397" width="80" height="80" as="geometry" />
        </mxCell>
        <mxCell id="og30UrdUeXJwtOHALcXS-28" value="8. 数据传输到socket的接收队列中" style="text;html=1;align=center;verticalAlign=middle;whiteSpace=wrap;rounded=0;" vertex="1" parent="1">
          <mxGeometry x="90" y="1482" width="270" height="30" as="geometry" />
        </mxCell>
        <mxCell id="og30UrdUeXJwtOHALcXS-30" style="edgeStyle=orthogonalEdgeStyle;rounded=0;orthogonalLoop=1;jettySize=auto;html=1;strokeWidth=2;fillColor=#fa6800;strokeColor=#C73500;" edge="1" parent="1" source="og30UrdUeXJwtOHALcXS-29" target="og30UrdUeXJwtOHALcXS-25">
          <mxGeometry relative="1" as="geometry" />
        </mxCell>
        <mxCell id="og30UrdUeXJwtOHALcXS-46" value="7. 从ringbuffer上摘下数据包，放入接收队列" style="edgeLabel;html=1;align=center;verticalAlign=middle;resizable=0;points=[];" vertex="1" connectable="0" parent="og30UrdUeXJwtOHALcXS-30">
          <mxGeometry x="-0.258" y="3" relative="1" as="geometry">
            <mxPoint as="offset" />
          </mxGeometry>
        </mxCell>
        <mxCell id="og30UrdUeXJwtOHALcXS-29" value="ksoftirqd内核线程" style="rounded=0;whiteSpace=wrap;html=1;align=center;verticalAlign=middle;fillColor=#fa6800;fontColor=#000000;strokeColor=#C73500;fontStyle=1" vertex="1" parent="1">
          <mxGeometry x="336.5" y="1242" width="75" height="40" as="geometry" />
        </mxCell>
        <mxCell id="og30UrdUeXJwtOHALcXS-36" style="edgeStyle=orthogonalEdgeStyle;rounded=0;orthogonalLoop=1;jettySize=auto;html=1;entryX=0.5;entryY=1;entryDx=0;entryDy=0;strokeWidth=2;fillColor=#fa6800;strokeColor=#C73500;" edge="1" parent="1" source="og30UrdUeXJwtOHALcXS-31" target="og30UrdUeXJwtOHALcXS-25">
          <mxGeometry relative="1" as="geometry" />
        </mxCell>
        <mxCell id="og30UrdUeXJwtOHALcXS-39" value="4. 网卡把数据DMA到内存" style="edgeLabel;html=1;align=center;verticalAlign=middle;resizable=0;points=[];" vertex="1" connectable="0" parent="og30UrdUeXJwtOHALcXS-36">
          <mxGeometry x="-0.0064" y="1" relative="1" as="geometry">
            <mxPoint y="36" as="offset" />
          </mxGeometry>
        </mxCell>
        <mxCell id="og30UrdUeXJwtOHALcXS-40" style="edgeStyle=orthogonalEdgeStyle;rounded=0;orthogonalLoop=1;jettySize=auto;html=1;strokeWidth=2;fillColor=#fa6800;strokeColor=#C73500;" edge="1" parent="1" source="og30UrdUeXJwtOHALcXS-31" target="og30UrdUeXJwtOHALcXS-35">
          <mxGeometry relative="1" as="geometry" />
        </mxCell>
        <mxCell id="og30UrdUeXJwtOHALcXS-41" value="5. 硬中断通知CPU" style="edgeLabel;html=1;align=center;verticalAlign=middle;resizable=0;points=[];" vertex="1" connectable="0" parent="og30UrdUeXJwtOHALcXS-40">
          <mxGeometry x="0.234" y="-4" relative="1" as="geometry">
            <mxPoint as="offset" />
          </mxGeometry>
        </mxCell>
        <mxCell id="og30UrdUeXJwtOHALcXS-31" value="网卡" style="rounded=1;whiteSpace=wrap;html=1;fillColor=#d5e8d4;strokeColor=#82b366;" vertex="1" parent="1">
          <mxGeometry x="332.25" y="1585" width="82" height="42" as="geometry" />
        </mxCell>
        <mxCell id="og30UrdUeXJwtOHALcXS-32" value="" style="shape=flexArrow;endArrow=classic;html=1;rounded=0;width=13;endSize=3.22;" edge="1" parent="1">
          <mxGeometry width="50" height="50" relative="1" as="geometry">
            <mxPoint x="227.5" y="1609" as="sourcePoint" />
            <mxPoint x="317.5" y="1609" as="targetPoint" />
          </mxGeometry>
        </mxCell>
        <mxCell id="og30UrdUeXJwtOHALcXS-34" value="3. 数据包到达网卡" style="text;html=1;align=center;verticalAlign=middle;whiteSpace=wrap;rounded=0;" vertex="1" parent="1">
          <mxGeometry x="186" y="1567" width="128.6" height="30" as="geometry" />
        </mxCell>
        <mxCell id="og30UrdUeXJwtOHALcXS-43" style="edgeStyle=orthogonalEdgeStyle;rounded=0;orthogonalLoop=1;jettySize=auto;html=1;entryX=0.5;entryY=1;entryDx=0;entryDy=0;fillColor=#fa6800;strokeColor=#C73500;strokeWidth=2;" edge="1" parent="1" source="og30UrdUeXJwtOHALcXS-35" target="og30UrdUeXJwtOHALcXS-42">
          <mxGeometry relative="1" as="geometry" />
        </mxCell>
        <mxCell id="og30UrdUeXJwtOHALcXS-35" value="" style="sketch=0;pointerEvents=1;shadow=0;dashed=0;html=1;strokeColor=none;fillColor=#434445;aspect=fixed;labelPosition=center;verticalLabelPosition=bottom;verticalAlign=top;align=center;outlineConnect=0;shape=mxgraph.vvd.cpu;" vertex="1" parent="1">
          <mxGeometry x="522" y="1412" width="50" height="50" as="geometry" />
        </mxCell>
        <mxCell id="og30UrdUeXJwtOHALcXS-44" style="edgeStyle=orthogonalEdgeStyle;rounded=0;orthogonalLoop=1;jettySize=auto;html=1;entryX=0.5;entryY=0;entryDx=0;entryDy=0;exitX=0.5;exitY=0;exitDx=0;exitDy=0;fillColor=#fa6800;strokeColor=#C73500;strokeWidth=2;" edge="1" parent="1" source="og30UrdUeXJwtOHALcXS-42" target="og30UrdUeXJwtOHALcXS-29">
          <mxGeometry relative="1" as="geometry">
            <Array as="points">
              <mxPoint x="548" y="1206" />
              <mxPoint x="374" y="1206" />
            </Array>
          </mxGeometry>
        </mxCell>
        <mxCell id="og30UrdUeXJwtOHALcXS-45" value="6. 硬中断转软中断，交给线程处理" style="edgeLabel;html=1;align=center;verticalAlign=middle;resizable=0;points=[];" vertex="1" connectable="0" parent="og30UrdUeXJwtOHALcXS-44">
          <mxGeometry x="0.017" relative="1" as="geometry">
            <mxPoint x="2" y="-12" as="offset" />
          </mxGeometry>
        </mxCell>
        <mxCell id="og30UrdUeXJwtOHALcXS-42" value="硬中断" style="rounded=0;whiteSpace=wrap;html=1;align=center;verticalAlign=middle;fillColor=#fa6800;fontColor=#000000;strokeColor=#C73500;fontStyle=1" vertex="1" parent="1">
          <mxGeometry x="510" y="1242" width="75" height="40" as="geometry" />
        </mxCell>
      </root>
    </mxGraphModel>
  </diagram>
</mxfile>
